<svg version="1.1" id="Layer_1" xmlns="http://www.w3.org/2000/svg" xmlns:xlink="http://www.w3.org/1999/xlink" x="0px" y="0px"
	 width="100%" viewBox="0 0 448 512" enable-background="new 0 0 448 512" xml:space="preserve">
<path fill="#000000" opacity="1.000000" stroke="none" 
	d="
M279.303284,314.203003 
	C282.378113,312.819794 285.177063,311.724274 287.849945,310.378357 
	C290.308044,309.140625 291.028198,307.349640 289.550598,304.647095 
	C284.679474,295.738098 278.471954,287.599030 274.385071,278.240417 
	C273.780853,276.856873 272.663177,276.324280 271.110962,276.697418 
	C253.232452,280.995453 234.986038,279.222473 216.902206,279.724762 
	C196.849304,280.281708 177.238815,283.882751 157.505066,286.795929 
	C128.373489,291.096405 99.331429,296.313934 69.720573,296.102905 
	C67.165039,296.084717 64.488762,296.360748 61.589359,294.030579 
	C67.584846,291.051849 72.990356,288.303345 78.449303,285.665405 
	C97.370544,276.522095 115.452614,265.871094 133.421219,255.025192 
	C136.089890,253.414368 138.715958,252.602615 141.845245,252.549484 
	C166.770569,252.126312 190.850647,247.960007 213.108215,235.995499 
	C219.380600,232.623764 225.671875,229.287262 230.694489,223.914551 
	C204.977158,234.067810 178.954300,242.660324 151.314117,243.496078 
	C150.475311,241.767914 150.996216,241.102890 151.628296,240.549988 
	C171.727570,222.968994 188.937531,202.481873 208.325287,184.186920 
	C225.632462,167.855286 244.245667,153.395081 266.429260,144.149033 
	C275.748871,140.264648 285.337189,137.486450 295.579468,139.201080 
	C317.512024,142.872665 329.520844,162.151215 323.450226,183.709076 
	C319.295715,198.462479 310.017273,209.690918 298.315430,218.909531 
	C274.667297,237.539322 247.482803,248.380142 218.100403,254.041962 
	C216.154495,254.416916 214.108383,254.238846 212.125595,254.464722 
	C210.149277,254.689850 208.194016,255.099808 205.333099,255.578842 
	C214.461548,259.024414 223.109360,259.167358 231.699371,257.561493 
	C268.965393,250.594711 301.039124,234.227844 324.801849,203.981522 
	C335.182251,190.768829 339.936798,175.579300 335.985870,158.538712 
	C333.064789,145.939896 324.756653,138.015076 313.403137,132.974014 
	C299.383331,126.749115 284.873138,127.501648 270.292358,130.622070 
	C268.351440,131.037445 266.453918,131.761093 264.358856,130.918274 
	C264.299438,130.449860 264.019714,129.845413 264.212799,129.535706 
	C271.166168,118.381630 274.396301,105.740967 278.811310,93.552773 
	C289.362640,64.424599 315.978821,56.217201 343.160400,64.353905 
	C352.568176,67.170090 360.755402,72.275757 367.113190,79.949898 
	C368.485260,81.606064 370.207458,82.295860 372.215607,82.777855 
	C379.417450,84.506424 386.590942,86.352921 395.239502,88.522102 
	C389.480133,92.523308 384.930206,95.700844 380.360962,98.850342 
	C378.578918,100.078674 376.727570,101.206894 374.951965,102.444107 
	C366.116638,108.600502 363.963196,115.570999 366.913910,125.977692 
	C380.169281,172.727600 365.720306,220.084900 327.767944,250.106461 
	C318.191376,257.681885 307.579865,263.643066 296.253571,268.261322 
	C288.580872,271.389862 287.060516,274.525085 289.691650,283.564423 
	C291.510681,289.813751 294.175171,295.725006 298.072357,301.053070 
	C300.854584,304.856781 304.332031,306.786438 309.087463,306.720490 
	C317.242340,306.607361 325.422363,306.287506 333.501923,307.818176 
	C336.332672,308.354492 338.848663,309.622345 338.272339,313.034271 
	C337.723297,316.284515 334.899841,316.420532 332.347534,316.096771 
	C313.209320,313.668884 294.944366,317.340179 277.041199,323.778290 
	C274.049622,324.854095 269.927185,327.639160 268.127106,323.846771 
	C266.093048,319.561401 271.349426,318.589844 274.030975,316.771667 
	C275.529388,315.755615 277.315765,315.164246 279.303284,314.203003 
M343.342285,100.022621 
	C344.280823,99.120949 345.404907,98.346146 346.124054,97.294449 
	C348.523438,93.785439 347.516815,90.634346 344.511017,88.143303 
	C341.687561,85.803391 338.558319,85.293083 335.599823,88.070442 
	C332.628815,90.859497 332.369843,94.145988 334.483795,97.457924 
	C336.378754,100.426704 339.253418,101.349823 343.342285,100.022621 
z"/>
<path fill="#000000" opacity="1.000000" stroke="none" 
	d="
M232.642136,339.341003 
	C247.012283,353.555450 250.758591,373.475555 242.604752,392.056732 
	C235.553223,408.125977 224.273987,421.315063 213.147369,434.578766 
	C210.154892,438.145966 206.875885,441.471283 203.804199,444.974121 
	C201.701096,447.372345 199.781036,447.466278 197.603348,445.043060 
	C183.344421,429.176025 169.314789,413.104309 159.578735,393.919647 
	C149.116180,373.303528 154.166580,350.430420 171.869507,336.515564 
	C189.769516,322.445801 213.647476,323.468933 232.642136,339.341003 
M206.818146,395.494507 
	C216.853455,392.401123 222.402283,385.391449 223.228729,375.162292 
	C223.864914,367.287659 220.690918,360.444214 214.414978,355.529327 
	C205.669342,348.680267 194.421448,349.211487 185.508865,356.510345 
	C177.687729,362.915405 175.612396,374.325256 180.480194,384.157104 
	C185.111923,393.512115 195.412430,398.154297 206.818146,395.494507 
z"/>
<path fill="#000000" opacity="1.000000" stroke="none" 
	d="
M152.860535,451.350098 
	C154.176910,448.494812 156.366364,447.462433 158.770905,448.207336 
	C163.817108,449.770599 169.165543,450.535034 173.621826,453.806793 
	C177.455536,456.621429 181.656769,457.732941 186.290009,455.521271 
	C187.305923,455.036316 188.558411,454.735077 189.670349,454.811157 
	C201.467545,455.618408 213.254120,453.285614 225.051697,454.735687 
	C227.754211,455.067841 230.931198,455.137268 231.033798,458.636078 
	C231.139023,462.224274 228.115585,462.863617 225.126022,463.378082 
	C214.778564,465.158722 204.320404,467.692352 193.938919,465.146545 
	C184.681778,462.876434 175.856552,459.250824 165.930771,460.787994 
	C163.260406,461.201508 160.234177,459.205688 157.351196,458.386719 
	C153.969574,457.426086 152.315231,455.328247 152.860535,451.350098 
z"/>
<path fill="#000000" opacity="1.000000" stroke="none" 
	d="
M378.673340,362.142120 
	C375.418518,363.410431 372.425232,363.535706 369.440918,363.102478 
	C364.678223,362.411163 362.843750,358.672180 366.152863,355.382599 
	C370.352325,351.207855 375.158081,347.507690 380.168243,344.339508 
	C382.756256,342.702942 386.458862,342.753082 388.818817,345.693665 
	C391.078613,348.509460 390.675323,351.577545 388.773285,354.503326 
	C386.411591,358.136169 382.976105,360.386444 378.673340,362.142120 
z"/>
<path fill="#000000" opacity="1.000000" stroke="none" 
	d="
M324.932373,356.636475 
	C327.806763,357.870514 330.534180,359.207977 329.559143,362.469635 
	C328.610291,365.643555 325.475830,365.582489 322.817017,365.305389 
	C314.682251,364.457642 306.854462,362.228516 299.215118,359.401215 
	C296.612488,358.438019 294.261230,356.523773 295.488007,353.357941 
	C296.670227,350.307098 299.605896,350.248444 302.314911,351.092834 
	C309.615265,353.368317 316.927307,355.557343 324.932373,356.636475 
z"/>
<path fill="#000000" opacity="1.000000" stroke="none" 
	d="
M352.886780,313.818665 
	C357.071014,315.134094 360.894196,316.288483 364.589996,317.762238 
	C367.781952,319.035156 370.026367,321.349213 369.209991,325.086121 
	C368.385986,328.857941 364.984131,329.192902 362.048309,329.054230 
	C358.431274,328.883392 354.782196,328.207611 351.271759,327.278595 
	C347.330566,326.235626 343.176331,324.649017 343.771973,319.479706 
	C344.339020,314.558929 348.564758,314.176483 352.886780,313.818665 
z"/>
<path fill="#000000" opacity="1.000000" stroke="none" 
	d="
M353.795532,357.633484 
	C355.429749,357.694672 356.619720,357.612457 357.749176,357.836060 
	C360.008942,358.283478 361.955994,359.367767 362.081787,361.934265 
	C362.202301,364.393036 360.649933,366.314392 358.433289,366.711548 
	C351.575592,367.940277 344.638947,369.207062 337.685730,367.409515 
	C334.917297,366.693787 331.768005,365.523987 332.299438,361.982727 
	C332.791534,358.703735 335.853485,357.851990 338.849457,357.777985 
	C343.672577,357.658783 348.498932,357.671478 353.795532,357.633484 
z"/>
<path fill="#000000" opacity="1.000000" stroke="none" 
	d="
M121.684814,421.269531 
	C123.781967,423.649963 125.670341,425.735107 127.493706,427.875610 
	C129.611649,430.361938 129.958466,433.122467 127.520622,435.412506 
	C125.150391,437.639099 122.232803,437.492462 119.949348,435.169891 
	C117.057655,432.228729 114.389503,429.056091 111.763840,425.868866 
	C109.760605,423.437134 109.194069,420.638550 111.753586,418.324188 
	C114.266907,416.051666 116.975822,416.856201 119.368637,418.873108 
	C120.122856,419.508881 120.757790,420.286163 121.684814,421.269531 
z"/>
<path fill="#000000" opacity="1.000000" stroke="none" 
	d="
M137.107056,449.075806 
	C134.881363,447.567139 132.932480,446.304779 131.085266,444.907959 
	C128.696350,443.101562 127.665695,440.702271 129.245422,437.964081 
	C130.861954,435.162048 133.770325,434.935181 136.229294,436.217957 
	C140.616287,438.506531 144.780258,441.246155 148.918503,443.977448 
	C150.784348,445.208893 151.062820,447.247803 150.363464,449.319855 
	C149.700943,451.282837 148.154556,452.039551 146.181763,452.277527 
	C142.751755,452.691254 140.198318,450.692413 137.107056,449.075806 
z"/>
<path fill="#000000" opacity="1.000000" stroke="none" 
	d="
M142.295868,328.588806 
	C139.401001,329.202148 137.143448,328.753845 136.121918,326.154602 
	C135.097672,323.548431 135.896790,321.160004 138.121506,319.495544 
	C141.316162,317.105377 144.510239,314.664673 147.949478,312.667175 
	C150.645157,311.101501 154.004517,310.479492 155.929672,313.674286 
	C157.735138,316.670441 156.318542,319.511597 153.537506,321.410156 
	C149.969986,323.845703 146.290695,326.117462 142.295868,328.588806 
z"/>
<path fill="#000000" opacity="1.000000" stroke="none" 
	d="
M235.585388,456.763428 
	C235.473907,454.080566 236.632843,452.421936 238.772720,451.926941 
	C243.683304,450.791016 248.180450,448.607635 252.846329,446.842712 
	C256.014282,445.644379 259.570648,445.347290 260.939667,449.112488 
	C262.307220,452.873566 259.101288,454.290588 256.127350,455.335846 
	C252.044754,456.770844 248.003418,458.342560 243.865204,459.593781 
	C240.713684,460.546692 237.548187,460.733490 235.585388,456.763428 
z"/>
<path fill="#000000" opacity="1.000000" stroke="none" 
	d="
M135.914154,330.268890 
	C136.040619,335.439087 128.163223,345.588623 123.646187,346.678101 
	C121.886871,347.102448 120.276115,346.928192 119.225204,345.328918 
	C118.082092,343.589325 117.537064,341.605682 118.640640,339.682922 
	C121.138435,335.330963 124.258095,331.388275 128.433075,328.609924 
	C130.882492,326.979889 133.801849,326.728851 135.914154,330.268890 
z"/>
<path fill="#000000" opacity="1.000000" stroke="none" 
	d="
M198.493164,307.036865 
	C194.777100,307.377533 191.496979,307.802368 188.204361,307.951843 
	C185.009232,308.096863 181.946014,307.291046 181.530731,303.570679 
	C181.117599,299.869598 183.837463,298.318329 187.049667,297.834900 
	C190.471619,297.319946 193.929169,296.997467 197.382492,296.747528 
	C200.803680,296.499847 203.893066,297.286438 204.389236,301.297913 
	C204.863663,305.133423 202.123001,306.410614 198.493164,307.036865 
z"/>
<path fill="#000000" opacity="1.000000" stroke="none" 
	d="
M159.008347,314.525146 
	C156.176514,311.007812 157.220261,308.172363 160.312485,306.297668 
	C164.298477,303.881165 168.703766,302.219360 173.239685,301.073029 
	C175.796036,300.427032 177.903305,301.516388 179.116226,303.788330 
	C180.199463,305.817291 179.565002,308.297852 177.850708,309.165741 
	C172.052826,312.100983 166.562729,316.440826 159.008347,314.525146 
z"/>
<path fill="#000000" opacity="1.000000" stroke="none" 
	d="
M281.916016,438.717010 
	C278.413147,441.578156 275.313385,444.391327 271.867706,446.684753 
	C269.161560,448.486053 265.673553,449.656799 263.476715,446.185883 
	C261.478638,443.028961 264.303040,441.074158 266.533722,439.266388 
	C269.372803,436.965576 272.221375,434.674500 275.003906,432.306396 
	C277.272888,430.375305 279.707367,428.541931 282.476227,430.962250 
	C285.185883,433.330780 284.204803,436.022034 281.916016,438.717010 
z"/>
<path fill="#000000" opacity="1.000000" stroke="none" 
	d="
M224.130035,299.686310 
	C228.066895,300.751129 230.169952,302.946228 229.031281,306.681396 
	C227.974396,310.148285 224.881119,309.937286 222.003784,309.428558 
	C218.595551,308.825989 215.168304,308.263550 211.820694,307.405304 
	C208.732071,306.613464 206.881561,304.379852 207.433365,301.174164 
	C207.988434,297.949402 210.775452,297.388458 213.583878,297.473572 
	C217.083069,297.579590 220.427200,298.528442 224.130035,299.686310 
z"/>
<path fill="#000000" opacity="1.000000" stroke="none" 
	d="
M116.771667,361.704102 
	C114.597267,365.214081 112.840851,369.907440 108.107712,367.378387 
	C103.119339,364.713013 106.025269,360.476959 107.777924,356.933044 
	C108.957367,354.548126 110.165588,352.140900 111.683792,349.969330 
	C113.546165,347.305542 116.375519,346.506897 119.136284,348.206909 
	C121.850021,349.877991 121.751526,352.654449 120.403435,355.297058 
	C119.344948,357.371979 118.114792,359.359314 116.771667,361.704102 
z"/>
<path fill="#000000" opacity="1.000000" stroke="none" 
	d="
M114.182281,410.981720 
	C113.895164,414.023346 112.530823,415.724304 109.830734,415.987427 
	C107.111549,416.252380 105.523285,414.537689 104.460594,412.342377 
	C102.725960,408.758972 101.400772,405.013824 100.661728,401.090942 
	C100.149483,398.371948 100.710670,396.056061 103.675087,395.131592 
	C106.770821,394.166168 108.935623,395.596893 110.013374,398.379425 
	C111.563583,402.381744 112.806091,406.503235 114.182281,410.981720 
z"/>
<path fill="#000000" opacity="1.000000" stroke="none" 
	d="
M99.692245,383.998657 
	C100.353416,380.307709 100.845963,377.014435 101.695122,373.815887 
	C102.495483,370.801117 104.477959,368.598694 107.835968,369.343018 
	C111.029037,370.050751 111.587288,372.934784 111.297264,375.717346 
	C110.953941,379.011475 110.276817,382.274780 109.658646,385.535187 
	C109.082237,388.575409 107.540680,391.158813 104.181389,390.956818 
	C100.401581,390.729523 99.518059,387.772064 99.692245,383.998657 
z"/>
<path fill="#000000" opacity="1.000000" stroke="none" 
	d="
M290.753052,347.724243 
	C291.261810,353.060822 288.684021,355.405396 284.245117,353.564575 
	C279.997223,351.802948 276.008026,349.376770 272.019043,347.047546 
	C269.808716,345.756927 268.652130,343.526398 269.896942,341.120850 
	C271.249908,338.506317 273.883423,338.117279 276.331390,339.392944 
	C281.148682,341.903229 285.815582,344.702087 290.753052,347.724243 
z"/>
<path fill="#000000" opacity="1.000000" stroke="none" 
	d="
M250.145309,316.815247 
	C247.774734,321.169281 244.684143,321.056061 241.235596,318.935669 
	C238.704529,317.379395 236.115189,315.894348 233.720428,314.146545 
	C231.250977,312.344238 229.679733,309.725891 231.525009,306.889160 
	C233.149658,304.391510 236.072830,304.071503 238.601578,305.679596 
	C243.100906,308.540771 249.637543,309.297638 250.145309,316.815247 
z"/>
<path fill="#000000" opacity="1.000000" stroke="none" 
	d="
M372.821594,325.484222 
	C378.716827,324.714233 387.825317,332.102173 387.977203,337.391388 
	C388.034271,339.378845 387.112000,340.940796 385.351044,341.835815 
	C383.634003,342.708588 382.061920,342.067902 380.863586,340.772247 
	C377.944702,337.616272 374.935028,334.577026 371.730103,331.695099 
	C369.512024,329.700623 369.522125,327.324860 372.821594,325.484222 
z"/>
<path fill="#000000" opacity="1.000000" stroke="none" 
	d="
M253.195465,338.168610 
	C250.216614,335.894379 248.993469,333.357880 250.698242,330.169312 
	C252.192001,327.375397 254.399780,325.319000 257.840973,325.882721 
	C261.513947,326.484406 264.540436,328.473145 265.329437,332.226288 
	C266.185181,336.296753 263.407959,338.283600 259.841522,339.113617 
	C257.723053,339.606659 255.551895,339.431030 253.195465,338.168610 
z"/>
<path fill="#000000" opacity="1.000000" stroke="none" 
	d="
M283.929260,428.432983 
	C282.014771,426.286713 282.064178,424.233429 283.321808,422.241272 
	C285.170288,419.313141 287.036285,416.382263 289.116486,413.619446 
	C290.354584,411.975098 292.170898,410.865143 294.301727,412.119232 
	C296.380646,413.342773 297.023987,415.158844 296.339417,417.623962 
	C294.211395,425.286896 289.780548,429.417114 283.929260,428.432983 
z"/>
</svg>